<svg version="1.1" id="Layer_1" xmlns="http://www.w3.org/2000/svg" xmlns:xlink="http://www.w3.org/1999/xlink" x="0px" y="0px"
	 width="100%" viewBox="0 0 1024 1024" enable-background="new 0 0 1024 1024" xml:space="preserve">
<path fill="#FFFFFE" opacity="1.000000" stroke="none" 
	d="
M1.000000,356.000000 
	C1.000000,237.678558 1.000000,119.357132 1.000000,1.035696 
	C1.154751,1.023798 1.309502,1.001468 1.464253,1.001467 
	C342.596619,0.999995 683.728943,1.000000 1024.930664,1.000000 
	C1024.930664,342.252808 1024.930664,683.505615 1024.930664,1024.879150 
	C683.781555,1024.879150 342.563080,1024.879150 1.000000,1024.879150 
	C1.000000,807.304077 1.000000,589.607971 1.465107,371.409546 
	C5.061964,370.907196 8.193712,370.907196 11.722514,370.907196 
	C11.722514,373.449890 11.710224,375.577271 11.724593,377.704468 
	C11.795412,388.188812 11.641642,398.681702 12.029520,409.154449 
	C12.291389,416.224884 15.957356,421.070435 21.891041,421.785187 
	C29.905363,422.750519 38.025829,422.834686 46.261909,423.306183 
	C46.261909,417.728790 46.261909,413.033081 46.261909,407.932129 
	C43.028515,407.932129 40.032822,408.517059 37.444778,407.741547 
	C35.479469,407.152649 32.645351,404.888794 32.580017,403.273834 
	C32.146420,392.556152 32.355495,381.812500 32.355495,370.760010 
	C37.243576,370.760010 41.691257,370.760010 46.392292,370.760010 
	C46.392292,365.866302 46.392292,361.300507 46.392292,356.260986 
	C41.577908,356.260986 37.003391,356.260986 31.967178,356.260986 
	C31.967178,350.064148 31.967178,344.324982 31.967178,338.359253 
	C25.061407,338.359253 18.636515,338.359253 11.774498,338.359253 
	C11.774498,344.200714 11.774498,349.964111 11.774498,356.000000 
	C7.901775,356.000000 4.450888,356.000000 1.000000,356.000000 
M555.290588,494.635895 
	C553.720398,503.294464 552.150208,511.953033 550.580017,520.611572 
	C550.183838,520.594543 549.787659,520.577515 549.391479,520.560486 
	C545.212769,501.005280 541.034058,481.450073 536.867249,461.950806 
	C529.319885,461.950806 522.215088,461.950806 514.956848,461.950806 
	C511.018951,481.638580 507.117462,501.144348 503.216003,520.650146 
	C502.885284,520.594666 502.554535,520.539124 502.223816,520.483643 
	C498.356873,500.957397 494.489929,481.431152 490.658142,462.082520 
	C483.270203,462.082520 476.346313,462.082520 469.278442,462.082520 
	C476.096191,491.888641 482.835144,521.350220 489.566010,550.776367 
	C497.389496,550.776367 504.933197,550.776367 512.453369,550.776367 
	C516.789490,530.528564 521.035522,510.701569 525.281555,490.874573 
	C525.646912,490.882355 526.012268,490.890137 526.377625,490.897949 
	C530.711121,510.933777 535.044678,530.969666 539.359863,550.920532 
	C547.283569,550.920532 554.710632,550.920532 562.275513,550.920532 
	C568.987854,521.219666 575.646790,491.754852 582.358887,462.054840 
	C574.943970,462.054840 568.074524,462.054840 561.222717,462.054840 
	C559.270508,472.845001 557.375061,483.321259 555.290588,494.635895 
M56.349030,462.107483 
	C43.287045,458.749268 30.564611,459.401642 18.511642,465.806824 
	C9.400990,470.648376 4.233589,478.041351 4.855309,488.787567 
	C5.459376,499.228638 11.593324,505.710266 20.672024,509.265717 
	C27.121462,511.791473 34.111626,512.915161 40.819633,514.809204 
	C45.761589,516.204529 50.920227,517.259155 55.473320,519.499817 
	C61.517368,522.474243 61.538387,529.522034 56.032982,533.213440 
	C46.681087,539.483948 29.724857,534.823120 24.941982,524.740173 
	C24.447632,523.698059 23.369844,522.203613 22.520370,522.174927 
	C16.117258,521.958679 9.703526,522.056946 3.187845,522.056946 
	C5.007514,532.035400 8.521463,538.466675 14.747665,543.673157 
	C29.604002,556.096313 57.688625,555.964294 72.497528,543.506165 
	C84.500160,533.408813 87.509659,510.961609 67.304443,502.753052 
	C59.522953,499.591736 51.011139,498.247253 42.866337,495.953308 
	C38.586121,494.747833 34.003723,493.935791 30.230726,491.772430 
	C24.935505,488.736267 25.468409,482.347778 30.707394,479.252838 
	C38.951031,474.382812 52.042839,477.430664 57.378376,485.403931 
	C57.969852,486.287842 58.907879,487.558685 59.715221,487.581360 
	C66.103546,487.760956 72.499168,487.681244 78.948212,487.681244 
	C77.647980,475.436737 70.398804,467.214844 56.349030,462.107483 
M278.537262,551.204163 
	C283.007965,551.204163 287.478668,551.204163 292.032532,551.204163 
	C292.032532,546.216248 292.032532,541.625671 292.032532,536.672363 
	C289.817383,536.672363 287.850891,536.732971 285.889221,536.661133 
	C279.492096,536.426758 277.988678,534.891663 277.919861,528.533447 
	C277.880219,524.869019 277.907593,521.203918 277.906982,517.539124 
	C277.905975,511.463715 277.906738,505.388336 277.906738,498.969727 
	C283.124481,498.969727 287.551849,498.969727 291.919434,498.969727 
	C291.919434,494.041534 291.919434,489.488007 291.919434,484.609924 
	C287.143646,484.609924 282.716949,484.609924 277.903320,484.609924 
	C277.903320,478.521393 277.903320,472.756622 277.903320,466.908936 
	C270.808228,466.908936 264.128662,466.908936 256.984558,466.908936 
	C256.984558,473.116760 256.984558,478.858002 256.984558,485.028442 
	C245.376053,484.027191 233.846756,482.324280 226.706192,494.745087 
	C226.706192,491.545013 226.706192,488.344971 226.706192,484.975281 
	C219.946991,484.975281 213.679245,484.975281 207.340729,484.975281 
	C207.340729,507.086761 207.340729,528.985107 207.340729,550.999939 
	C214.112732,550.999939 220.557190,550.999939 227.422546,550.999939 
	C227.422546,548.837219 227.406525,546.863892 227.425247,544.890808 
	C227.518478,535.066345 227.393860,525.232727 227.796646,515.420837 
	C228.084198,508.416473 231.752701,504.928558 238.761581,504.182983 
	C241.230652,503.920319 243.747086,504.114716 246.241196,504.065216 
	C246.710251,504.055908 247.175995,503.879944 247.796265,503.748474 
	C247.967178,502.294373 248.131943,500.892700 248.304504,499.424622 
	C251.398773,499.424622 254.138123,499.424622 257.296783,499.424622 
	C257.296783,509.825867 257.291534,519.955261 257.297974,530.084717 
	C257.308777,546.996399 260.775330,550.606445 278.537262,551.204163 
M1010.387817,551.198120 
	C1013.018738,551.198120 1015.649658,551.198120 1018.487671,551.198120 
	C1018.487671,521.220032 1018.487671,491.685242 1018.487671,462.008728 
	C1011.662231,462.008728 1005.085632,462.008728 998.246277,462.008728 
	C998.246277,467.277313 998.246277,472.262177 998.246277,477.247040 
	C998.246277,482.150818 998.246277,487.054596 998.246277,492.622498 
	C997.239990,491.870880 996.871826,491.653290 996.572754,491.364197 
	C982.701111,477.953247 960.954895,481.569183 952.745422,498.980255 
	C946.822266,511.542328 946.946838,524.567078 952.680786,537.147888 
	C959.536682,552.190125 978.337341,557.584473 991.932861,548.790344 
	C994.046509,547.423096 995.876587,545.617432 998.320374,543.620056 
	C998.320374,546.434082 998.320374,548.567383 998.320374,551.198059 
	C1002.194153,551.198059 1005.819031,551.198059 1010.387817,551.198120 
M412.909332,483.456116 
	C405.880554,483.946960 400.192413,487.278198 395.091064,492.669525 
	C394.938751,489.593201 394.826141,487.318146 394.713654,485.045837 
	C387.778534,485.045837 381.167542,485.045837 374.618774,485.045837 
	C374.618774,514.415649 374.618774,543.507263 374.618774,572.583862 
	C381.506866,572.583862 388.068207,572.583862 395.060059,572.583862 
	C395.060059,562.871704 395.060059,553.497253 395.060059,543.685547 
	C410.781219,559.747864 434.994385,553.640076 441.650360,534.404724 
	C443.774048,528.267456 444.714172,521.326660 444.440552,514.827393 
	C443.602661,494.925964 431.947906,483.396820 412.909332,483.456116 
M221.980164,402.500641 
	C222.308914,394.863922 222.128418,387.160156 223.122238,379.610992 
	C223.967300,373.191895 228.730331,370.380371 235.541153,370.862122 
	C241.077927,371.253784 243.861115,374.142914 244.090561,381.059296 
	C244.487930,393.038544 244.433380,405.032837 244.561172,417.020905 
	C244.581451,418.923950 244.564026,420.827362 244.564026,422.614075 
	C251.816833,422.614075 258.237640,422.614075 264.568146,422.614075 
	C264.740112,421.986298 264.898407,421.676819 264.899109,421.367004 
	C264.922913,410.538605 265.038391,399.708771 264.899261,388.882263 
	C264.826721,383.237610 264.719940,377.536621 263.892609,371.970459 
	C262.265778,361.025665 255.593353,355.509094 244.486862,354.948700 
	C235.932007,354.517059 228.630630,357.227966 221.932846,364.233643 
	C221.932846,353.250244 221.932846,343.378784 221.932846,333.432373 
	C214.852432,333.432373 208.301758,333.432373 201.615845,333.432373 
	C201.615845,363.333557 201.615845,392.912231 201.615845,422.650665 
	C208.431366,422.650665 214.995941,422.650665 221.980164,422.650665 
	C221.980164,416.082275 221.980164,409.791138 221.980164,402.500641 
M787.792847,528.623047 
	C785.128174,524.400024 782.850830,519.857117 779.696899,516.038147 
	C776.082642,511.661713 777.232910,508.722198 780.802673,505.165985 
	C787.101746,498.890778 793.034302,492.247559 799.924683,484.900757 
	C793.965637,484.900757 789.162537,485.328461 784.468079,484.796936 
	C778.003662,484.064941 773.629822,486.328979 769.740173,491.512756 
	C765.125793,497.662354 759.620544,503.143524 753.512573,510.029022 
	C753.512573,493.043488 753.512573,477.537109 753.512573,462.086243 
	C746.362915,462.086243 739.801392,462.086243 733.181824,462.086243 
	C733.181824,491.850616 733.181824,521.290222 733.181824,550.975586 
	C739.928650,550.975586 746.518982,550.975586 753.686951,550.975586 
	C753.464050,541.407593 751.741821,531.235596 762.819641,525.847351 
	C767.179688,533.144592 771.560608,540.594238 776.092529,547.950806 
	C776.884094,549.235657 778.275879,551.012207 779.450256,551.058960 
	C786.678589,551.346802 793.924133,551.203308 801.951782,551.203308 
	C796.985413,543.309326 792.565063,536.283264 787.792847,528.623047 
M176.777252,616.234985 
	C172.015869,615.755737 172.948441,619.220276 172.945190,621.894043 
	C172.914673,647.022583 172.936890,672.151062 172.910187,697.279602 
	C172.903656,703.432373 172.850449,703.492493 179.221298,703.123657 
	C183.204056,702.893066 188.911789,703.884216 190.697403,701.724487 
	C192.789551,699.193909 191.529495,693.838135 191.601822,689.705750 
	C191.680588,685.205444 191.619720,680.702698 191.619720,675.209229 
	C194.270416,676.861511 195.675140,677.685913 197.027863,678.588257 
	C208.522797,686.256653 225.849823,682.409607 232.958771,670.571533 
	C240.250397,658.429199 240.650665,645.677795 235.865570,632.665100 
	C231.966888,622.062927 224.270432,615.789551 212.975006,614.509949 
	C205.068802,613.614380 197.923141,615.965698 191.306976,621.436401 
	C190.741928,616.241516 187.436447,615.937561 183.689606,616.218262 
	C181.703903,616.367004 179.697540,616.240173 176.777252,616.234985 
M50.991898,388.567474 
	C51.402885,409.681183 62.951050,422.282684 82.938232,424.334961 
	C100.291946,426.116882 116.911446,415.562683 119.865753,401.925415 
	C115.159409,401.925415 110.490837,401.690125 105.865150,402.033203 
	C103.817436,402.185089 101.476013,403.060120 99.924431,404.379150 
	C94.257896,409.196259 84.116905,410.237640 77.952461,406.085510 
	C74.110359,403.497650 71.606812,400.060394 72.064362,394.601440 
	C88.464882,394.601440 104.545952,394.601440 120.569687,394.601440 
	C122.770584,372.662964 109.872925,356.272278 89.348877,354.413239 
	C68.890190,352.560059 52.447979,366.807404 50.991898,388.567474 
M859.245911,491.247986 
	C847.523254,480.998230 829.449585,479.932526 815.553467,488.671692 
	C803.065247,496.525452 797.456665,513.463196 802.077087,529.370178 
	C806.341980,544.053040 819.686035,553.049438 837.012146,552.922974 
	C852.500488,552.809937 865.844360,543.631836 869.615723,530.079773 
	C861.833069,531.460754 853.415771,527.254517 846.696289,534.583191 
	C845.250671,536.159790 842.133423,536.527466 839.708984,536.826904 
	C829.061707,538.141968 821.684448,532.622925 821.684937,523.184814 
	C837.760315,523.184814 853.842712,523.184814 870.212769,523.184814 
	C870.826721,511.030396 868.438110,500.355499 859.245911,491.247986 
M176.244431,507.512878 
	C174.976517,508.352295 173.813339,509.625885 172.423782,509.961182 
	C162.924652,512.253357 153.001419,513.345703 143.937515,516.749146 
	C131.284805,521.500183 128.172852,536.243958 136.927673,545.829468 
	C141.445694,550.776184 147.477829,552.601013 154.000259,552.901917 
	C162.705978,553.303650 170.545990,551.019958 177.262054,544.175537 
	C177.566467,547.036560 177.771835,548.966675 177.976852,550.893433 
	C184.596298,550.893433 190.982300,550.893433 197.420898,550.893433 
	C197.186508,548.066345 196.839615,545.584351 196.798248,543.097351 
	C196.587891,530.449036 196.771286,517.785034 196.197708,505.154663 
	C195.742462,495.129883 190.848755,487.555542 180.840515,484.664673 
	C169.815033,481.480072 158.728867,481.646210 148.222305,486.877350 
	C140.364288,490.789825 135.353790,496.946503 134.289261,506.352112 
	C137.690536,506.352112 140.670563,506.352081 143.650574,506.352081 
	C146.774323,506.352081 149.898056,506.352112 152.816727,506.352112 
	C155.994217,498.286316 160.268890,495.681152 167.933441,496.770660 
	C173.728775,497.594482 175.589630,499.792419 176.244431,507.512878 
M602.135925,529.915100 
	C601.532166,527.805481 600.928345,525.695923 600.143250,522.952881 
	C617.108887,522.952881 633.172974,522.952881 649.170471,522.952881 
	C651.572266,503.131653 639.855530,486.336670 621.949951,483.403412 
	C601.907043,480.119965 584.466003,491.152466 580.535767,509.600342 
	C576.252136,529.707153 586.192322,546.659912 605.231079,551.717712 
	C624.137878,556.740356 643.586487,547.309814 648.791565,530.237854 
	C643.910583,530.237854 639.132751,530.027466 634.389465,530.340271 
	C632.460083,530.467407 630.232849,531.298950 628.779480,532.550964 
	C620.960449,539.286865 609.383423,538.518005 602.135925,529.915100 
M687.686096,482.954468 
	C667.367554,484.916168 654.704102,498.750519 654.972717,518.692871 
	C655.233948,538.088867 667.968384,551.218872 687.619263,552.847351 
	C706.505615,554.412537 721.929077,541.963135 723.721375,530.179016 
	C715.722168,530.961975 707.058899,527.736084 700.347473,534.961792 
	C699.631714,535.732361 698.266418,535.963684 697.157654,536.295166 
	C686.168762,539.579773 676.228516,533.577576 676.063049,523.157043 
	C684.181152,523.157043 692.297729,523.157043 700.414246,523.157043 
	C708.497437,523.157043 716.580627,523.157043 724.588257,523.157043 
	C726.265320,500.112915 712.523682,481.625122 687.686096,482.954468 
M423.224365,422.822662 
	C426.843445,420.725861 430.462524,418.629059 434.033722,416.560028 
	C434.255035,418.504883 434.493256,420.598053 434.728760,422.667664 
	C441.390320,422.667664 447.647705,422.667664 453.104095,422.667664 
	C453.104095,411.298462 453.119843,400.194519 453.096375,389.090668 
	C453.086914,384.600891 453.317719,380.078552 452.870575,375.628174 
	C451.791992,364.892944 445.524445,357.866760 435.079346,355.480743 
	C427.001831,353.635529 418.905884,353.702179 410.889557,356.021423 
	C399.274628,359.381805 391.412720,368.125854 391.467773,377.970154 
	C394.439850,377.970154 397.417236,377.970123 400.394592,377.970123 
	C403.509552,377.970123 406.624512,377.970154 409.540405,377.970154 
	C413.199097,369.223541 418.552185,366.423340 426.559631,368.708649 
	C431.744934,370.188538 433.536957,373.897919 432.475372,381.288940 
	C430.075928,381.530823 427.537994,381.483215 425.162079,382.080292 
	C416.350098,384.294800 407.313812,386.007843 398.895721,389.281982 
	C391.401306,392.196930 388.083588,398.921234 388.987122,407.106232 
	C389.886353,415.251862 394.797668,420.300446 402.326935,422.914001 
	C408.994171,425.228271 415.737244,424.958466 423.224365,422.822662 
M319.723389,488.901337 
	C319.655182,487.637146 319.586975,486.372955 319.511993,484.983032 
	C312.679657,484.983032 306.241791,484.983032 299.242920,484.983032 
	C299.242920,487.976898 299.208282,490.761749 299.248779,493.545441 
	C299.444946,507.023102 299.075928,520.542603 300.041412,533.965698 
	C300.937500,546.422974 308.468536,552.505310 320.879395,552.923096 
	C329.192108,553.202942 336.115479,550.609985 341.646515,542.270935 
	C341.826813,546.251526 341.933105,548.598022 342.042664,551.016479 
	C348.901581,551.016479 355.349213,551.016479 362.035095,551.016479 
	C362.035095,528.929138 362.035095,507.030914 362.035095,485.073700 
	C355.215088,485.073700 348.633362,485.073700 341.866211,485.073700 
	C341.866211,488.693420 341.905334,492.017303 341.858887,495.340027 
	C341.714722,505.654541 342.041809,516.009155 341.214661,526.270020 
	C340.552765,534.481323 336.185791,537.572876 328.594666,537.026733 
	C322.831390,536.612000 320.065125,533.191589 319.906189,525.285706 
	C319.668579,513.466553 319.772003,501.640472 319.723389,488.901337 
M881.763306,484.782440 
	C878.448669,484.239410 878.495300,486.320862 878.501038,488.696747 
	C878.548889,508.520721 878.518005,528.344910 878.538757,548.169006 
	C878.539734,549.102356 878.803345,550.035461 878.945984,550.977173 
	C885.658630,550.977173 892.093201,550.977173 898.997070,550.977173 
	C898.997070,539.810608 898.833191,528.860596 899.081543,517.919983 
	C899.174683,513.819641 899.774353,509.604584 900.956299,505.687134 
	C902.429749,500.803192 907.474548,498.404572 913.103577,499.201416 
	C918.100220,499.908691 920.735046,502.919342 921.105347,507.894806 
	C921.364624,511.378571 921.640503,514.870728 921.663635,518.360718 
	C921.735413,529.167297 921.689880,539.974609 921.689880,550.878418 
	C928.577576,550.878418 935.134155,550.878418 942.014832,550.878418 
	C942.014832,540.909363 942.125732,531.272949 941.978149,521.640442 
	C941.868713,514.493896 942.025146,507.263885 940.988159,500.229492 
	C939.399963,489.456207 933.322021,484.340668 922.448120,483.448975 
	C913.562317,482.720215 905.796753,485.269653 899.050171,492.930115 
	C899.050171,489.627991 899.050171,487.423645 899.050171,484.781128 
	C893.299927,484.781128 888.005615,484.781128 881.763306,484.782440 
M329.016418,387.423187 
	C324.616516,385.957031 320.283691,384.226715 315.800537,383.088318 
	C309.524384,381.494598 303.066040,380.589050 296.846375,378.823059 
	C295.330780,378.392731 293.595459,375.785278 293.538086,374.124359 
	C293.493988,372.846985 295.781433,370.547363 297.277985,370.319824 
	C304.132019,369.277679 311.303894,367.782928 316.406097,374.761688 
	C316.823547,375.332672 317.758636,375.828583 318.461334,375.839539 
	C324.054749,375.926697 329.650116,375.888123 335.574554,375.888123 
	C334.520996,368.934540 331.546509,363.787018 326.133545,360.608704 
	C312.086975,352.360931 297.594147,352.489441 283.288269,359.809814 
	C276.923340,363.066772 273.521942,368.666168 273.887115,376.148163 
	C274.256683,383.718750 277.930817,389.393005 284.811768,392.025848 
	C290.952301,394.375366 297.604523,395.382629 304.024017,397.009552 
	C307.713684,397.944641 311.566681,398.523834 315.021698,400.014984 
	C318.462341,401.499878 318.524536,404.893677 315.657410,407.175079 
	C309.726532,411.894318 296.627167,409.813202 292.236694,403.579742 
	C291.513092,402.552368 290.127533,401.398407 289.001465,401.348419 
	C283.715912,401.113647 278.414154,401.244019 272.651337,401.244019 
	C273.621643,408.882538 277.020172,414.465271 282.876221,418.572906 
	C294.743530,426.896942 318.200592,426.350769 329.766907,417.677277 
	C340.053986,409.963074 339.427155,392.338074 329.016418,387.423187 
M538.019836,380.848572 
	C535.931641,380.301086 533.586182,380.171509 531.827576,379.088715 
	C530.062134,378.001709 527.716797,375.918060 527.779297,374.357422 
	C527.839233,372.859802 530.519653,370.466248 532.294800,370.216309 
	C538.965942,369.276855 546.041504,367.854523 550.777649,374.985107 
	C551.133362,375.520660 552.160339,375.855621 552.880676,375.864777 
	C558.476807,375.935913 564.074341,375.904053 570.020142,375.904053 
	C568.429626,367.801941 564.474304,361.994293 557.602783,358.808929 
	C544.805359,352.876648 531.730652,353.049530 518.976440,358.944916 
	C512.365356,362.000763 508.195282,367.356506 508.205841,375.015350 
	C508.216980,383.112274 511.932770,389.163513 519.471924,392.272614 
	C523.580627,393.967041 528.000732,394.971710 532.346985,396.007812 
	C537.510315,397.238647 542.828735,397.887787 547.901062,399.392059 
	C549.535095,399.876648 551.424988,402.154602 551.659851,403.828033 
	C551.835693,405.080597 549.832214,407.213959 548.304504,408.034210 
	C540.399475,412.278656 529.833618,409.129578 525.524475,401.523926 
	C519.426392,401.523926 513.341980,401.523926 507.239197,401.523926 
	C507.856140,408.259094 510.536804,413.234589 515.704834,417.468018 
	C527.502686,427.132416 553.315491,426.738464 564.987183,416.964050 
	C573.394043,409.923767 575.678955,390.780701 559.668152,385.906494 
	C552.860657,383.834045 545.805176,382.576508 538.019836,380.848572 
M71.973511,658.654419 
	C69.978180,673.004456 75.792732,680.309875 90.149307,682.129028 
	C98.811485,683.226685 106.568726,680.939758 113.803078,676.914124 
	C119.489807,684.529480 126.956924,679.228149 133.467499,680.932556 
	C133.623611,679.525879 133.773056,678.877625 133.755585,678.233948 
	C133.359253,663.620300 132.736374,649.009033 132.613861,634.393372 
	C132.543655,626.019287 128.563004,619.660400 120.555176,616.853516 
	C111.661201,613.736084 102.491165,613.611938 93.459488,615.445251 
	C85.470894,617.066833 78.069870,620.383301 74.942833,628.902039 
	C74.182999,630.971985 74.451859,633.419495 74.247704,635.693420 
	C78.942444,636.047913 83.634460,636.573059 88.333664,636.648132 
	C89.662827,636.669312 91.673599,635.720276 92.244392,634.627441 
	C95.507874,628.379028 100.347786,625.820190 106.943626,627.304138 
	C110.912033,628.197083 113.570335,630.304688 113.739136,634.664551 
	C113.907448,639.012207 110.827019,640.377258 107.408585,641.017822 
	C101.037781,642.211487 94.581833,642.963989 88.229622,644.240112 
	C80.446571,645.803528 74.202065,649.454712 71.973511,658.654419 
M182.756943,361.726593 
	C170.115875,352.109406 150.671051,351.809509 138.904572,361.050293 
	C127.014236,370.388336 122.635384,390.257874 129.144867,405.335876 
	C135.426086,419.885193 149.756134,426.903717 167.207458,423.978058 
	C181.205261,421.631348 192.371674,410.897919 193.614655,398.252563 
	C188.770554,398.252563 183.956512,398.352356 179.149429,398.212433 
	C176.569946,398.137268 175.280945,398.954681 173.782684,401.333618 
	C172.070053,404.052948 169.140259,406.679993 166.158798,407.795685 
	C158.171097,410.784637 150.682755,406.462463 148.291580,398.244965 
	C144.620682,385.629578 148.795197,373.232605 157.535233,370.794373 
	C165.323166,368.621704 170.425781,371.528198 174.581024,380.552002 
	C180.634521,380.552002 186.715134,380.552002 193.041138,380.552002 
	C191.940536,373.021484 188.596207,367.094116 182.756943,361.726593 
M288.993713,628.515869 
	C288.834442,637.830200 289.240356,647.199402 288.343262,656.442139 
	C287.577606,664.330261 281.636475,668.635376 274.649231,667.936401 
	C268.348358,667.306030 265.025299,662.808350 264.940613,654.523438 
	C264.857208,646.363037 264.913483,638.201294 264.912048,630.040100 
	C264.909576,615.970886 264.911133,616.086365 250.805878,616.135132 
	C247.154892,616.147766 246.211990,617.619019 246.247040,620.895691 
	C246.366394,632.053711 245.970169,643.230896 246.505829,654.365417 
	C246.804352,660.570862 247.573532,667.102783 249.863632,672.789673 
	C254.448624,684.175476 275.579041,684.823303 284.397675,678.170227 
	C285.759979,677.142517 287.208984,676.229675 289.370087,674.747986 
	C288.552338,680.434814 291.314117,681.245605 295.231934,680.933289 
	C297.880615,680.722107 300.565887,680.750549 303.221283,680.904602 
	C305.921448,681.061218 307.158844,680.195068 307.148987,677.283203 
	C307.084076,658.130432 307.174438,638.976990 307.034027,619.825073 
	C307.025360,618.640503 305.548767,616.506226 304.649078,616.447876 
	C299.574005,616.118347 294.466522,616.288696 288.994019,616.288696 
	C288.994019,620.565186 288.994019,624.045044 288.993713,628.515869 
M61.716419,617.500000 
	C61.716286,610.673950 61.522213,603.840210 61.792130,597.024841 
	C61.942848,593.219238 60.972912,591.458313 56.851143,591.841797 
	C53.550617,592.148926 50.179657,592.107117 46.872566,591.830444 
	C42.910347,591.498962 41.762531,592.998352 41.766949,596.942932 
	C41.788567,616.246033 41.564831,635.550171 41.314373,654.852478 
	C41.222652,661.921082 38.084919,665.623291 32.421341,665.884705 
	C26.561682,666.155273 22.249962,662.449585 21.104084,656.130005 
	C20.586460,653.275330 21.054283,649.044006 19.383640,647.893738 
	C17.200338,646.390503 13.341187,647.304626 10.202025,647.212708 
	C8.538693,647.164001 6.774882,646.846985 5.241269,647.290405 
	C4.104182,647.619202 2.600474,648.848145 2.395055,649.898193 
	C0.164685,661.299011 5.974879,673.886414 16.077164,679.143860 
	C22.566864,682.521362 29.677172,683.519043 36.941517,682.734680 
	C51.257732,681.189026 59.832783,673.658691 61.034557,659.393250 
	C62.176399,645.839233 61.559475,632.137024 61.716419,617.500000 
M120.517601,536.660278 
	C117.149788,536.307129 113.243408,536.092468 113.129005,531.666199 
	C112.851616,520.933838 113.038834,510.189575 113.038834,499.137939 
	C117.958794,499.137939 122.406281,499.137939 127.103241,499.137939 
	C127.103241,494.260071 127.103241,489.701447 127.103241,484.702728 
	C122.329346,484.702728 117.755112,484.702728 112.807510,484.702728 
	C112.807510,478.509155 112.807510,472.745575 112.807510,466.763916 
	C105.849083,466.763916 99.288467,466.763916 92.291702,466.763916 
	C92.291702,472.825867 92.291702,478.584229 92.291702,484.843018 
	C88.634125,484.843018 85.407707,484.843018 82.127205,484.843018 
	C82.127205,489.791077 82.127205,494.224976 82.127205,499.202332 
	C85.559990,499.202332 88.783936,499.202332 92.325249,499.202332 
	C92.325249,502.894379 92.291428,506.041412 92.331558,509.187500 
	C92.454521,518.828979 92.231346,528.494812 92.863564,538.103699 
	C93.378181,545.925110 97.063675,549.867737 104.658958,550.558411 
	C112.039322,551.229431 119.528481,550.704041 127.087662,550.704041 
	C127.087662,546.164795 127.087662,541.592285 127.087662,536.661743 
	C125.002449,536.661743 123.202362,536.661743 120.517601,536.660278 
M369.655701,373.524261 
	C370.616608,372.650879 371.523102,371.107422 372.548187,371.024170 
	C376.287811,370.720459 380.067017,370.904114 383.761902,370.904114 
	C383.761902,365.663788 383.761902,361.100800 383.761902,356.043884 
	C378.855591,356.043884 374.279388,356.043884 369.260651,356.043884 
	C369.260651,349.799438 369.260651,344.060577 369.260651,338.377960 
	C362.359650,338.377960 355.926941,338.377960 349.023376,338.377960 
	C349.023376,344.369232 349.023376,350.113068 349.023376,356.366455 
	C345.336029,356.366455 342.108704,356.366455 338.838196,356.366455 
	C338.838196,361.478882 338.838196,366.054901 338.838196,370.961792 
	C342.272003,370.961792 345.388153,370.961792 349.040009,370.961792 
	C349.040009,373.072174 349.035126,374.852386 349.040833,376.632538 
	C349.073456,386.787537 348.961731,396.945801 349.189087,407.096466 
	C349.372955,415.305115 352.096924,420.327942 358.321564,421.367157 
	C366.714752,422.768433 375.337616,422.793945 383.777527,423.403717 
	C383.777527,417.610504 383.777527,413.028046 383.777527,408.126251 
	C381.805206,408.126251 380.164825,408.164612 378.526703,408.119720 
	C370.719849,407.905853 369.676758,406.843842 369.648804,398.997620 
	C369.619720,390.840149 369.629517,382.682495 369.655701,373.524261 
M501.255859,375.665466 
	C502.409180,374.977692 504.527100,374.336304 504.562714,373.594818 
	C504.839935,367.831329 504.715851,362.048523 504.715851,356.346069 
	C495.692596,355.270905 491.895813,357.103973 483.773315,366.416199 
	C483.563171,362.828735 483.377380,359.657166 483.194031,356.527100 
	C476.575928,356.527100 470.339447,356.527100 463.923584,356.527100 
	C463.923584,378.719757 463.923584,400.626343 463.923584,422.639221 
	C470.688660,422.639221 477.251129,422.639221 484.134552,422.639221 
	C484.134552,412.243896 484.119965,402.124207 484.138214,392.004578 
	C484.161560,379.073944 487.534119,375.686066 501.255859,375.665466 
M317.410187,632.600647 
	C317.576691,647.245483 317.670227,661.892029 318.022217,676.532410 
	C318.057526,678.001404 319.561462,680.602295 320.550903,680.685181 
	C325.618073,681.110107 330.740082,680.881714 336.080078,680.881714 
	C336.080078,670.193604 335.930176,660.235779 336.120514,650.284485 
	C336.328033,639.433105 341.304413,633.001221 349.980347,631.873718 
	C353.171753,631.458984 358.022797,632.260681 359.181793,630.535706 
	C360.820129,628.097107 359.801453,623.829285 359.800293,620.343384 
	C359.798492,614.776978 358.344330,613.604004 352.943298,614.471252 
	C345.914093,615.599854 340.404907,619.252014 336.176941,624.852295 
	C335.076660,621.805054 334.842438,617.840393 332.942627,616.732971 
	C330.561432,615.344849 326.813599,616.298828 323.655579,616.247559 
	C322.989563,616.236755 322.321014,616.285767 321.657288,616.246155 
	C318.849518,616.078674 317.850861,617.475464 317.845215,620.175598 
	C317.837189,623.995361 317.568359,627.814575 317.410187,632.600647 
M161.945480,636.500549 
	C161.945480,633.667908 161.946426,630.835205 161.945312,628.002563 
	C161.940689,616.245972 161.940460,616.246033 149.979691,616.260193 
	C143.400375,616.267944 143.274948,616.369019 143.278900,622.876404 
	C143.288834,639.205505 143.282104,655.534790 143.381897,671.863403 
	C143.399689,674.771790 143.897461,677.677185 144.157059,680.409790 
	C150.416443,680.409790 155.962204,680.409790 161.945389,680.409790 
	C161.945389,665.795105 161.945389,651.647705 161.945480,636.500549 
M573.802368,431.492645 
	C573.802368,434.251709 573.802368,437.010742 573.802368,439.764435 
	C592.478027,439.764435 610.494690,439.764435 628.676758,439.764435 
	C628.676758,434.076782 628.676758,428.681396 628.676758,423.213806 
	C610.286072,423.213806 592.132141,423.213806 573.802124,423.213806 
	C573.802124,425.875916 573.802124,428.191956 573.802368,431.492645 
M152.534027,606.925903 
	C155.457687,606.925903 158.381348,606.925903 161.874573,606.925903 
	C161.874573,602.298462 161.986374,598.359253 161.791275,594.435242 
	C161.745895,593.522522 160.667435,591.905945 160.044785,591.896484 
	C154.966171,591.819092 149.705887,591.373108 144.919479,592.631531 
	C143.645386,592.966492 143.815170,598.809998 143.336182,602.126465 
	C143.289459,602.449951 143.363312,602.789001 143.346344,603.119019 
	C143.210114,605.766235 144.229340,607.202942 147.111176,606.948120 
	C148.590576,606.817200 150.091156,606.925537 152.534027,606.925903 
z"/>
<path fill="#060606" opacity="1.000000" stroke="none" 
	d="
M1.000000,356.466125 
	C4.450888,356.000000 7.901775,356.000000 11.774498,356.000000 
	C11.774498,349.964111 11.774498,344.200714 11.774498,338.359253 
	C18.636515,338.359253 25.061407,338.359253 31.967178,338.359253 
	C31.967178,344.324982 31.967178,350.064148 31.967178,356.260986 
	C37.003391,356.260986 41.577908,356.260986 46.392292,356.260986 
	C46.392292,361.300507 46.392292,365.866302 46.392292,370.760010 
	C41.691257,370.760010 37.243576,370.760010 32.355495,370.760010 
	C32.355495,381.812500 32.146420,392.556152 32.580017,403.273834 
	C32.645351,404.888794 35.479469,407.152649 37.444778,407.741547 
	C40.032822,408.517059 43.028515,407.932129 46.261909,407.932129 
	C46.261909,413.033081 46.261909,417.728790 46.261909,423.306183 
	C38.025829,422.834686 29.905363,422.750519 21.891041,421.785187 
	C15.957356,421.070435 12.291389,416.224884 12.029520,409.154449 
	C11.641642,398.681702 11.795412,388.188812 11.724593,377.704468 
	C11.710224,375.577271 11.722514,373.449890 11.722514,370.907196 
	C8.193712,370.907196 5.061964,370.907196 1.465107,370.953613 
	C1.000000,366.310760 1.000000,361.621490 1.000000,356.466125 
z"/>
<path fill="#050505" opacity="1.000000" stroke="none" 
	d="
M555.385132,494.216675 
	C557.375061,483.321259 559.270508,472.845001 561.222717,462.054840 
	C568.074524,462.054840 574.943970,462.054840 582.358887,462.054840 
	C575.646790,491.754852 568.987854,521.219666 562.275513,550.920532 
	C554.710632,550.920532 547.283569,550.920532 539.359863,550.920532 
	C535.044678,530.969666 530.711121,510.933777 526.377625,490.897949 
	C526.012268,490.890137 525.646912,490.882355 525.281555,490.874573 
	C521.035522,510.701569 516.789490,530.528564 512.453369,550.776367 
	C504.933197,550.776367 497.389496,550.776367 489.566010,550.776367 
	C482.835144,521.350220 476.096191,491.888641 469.278442,462.082520 
	C476.346313,462.082520 483.270203,462.082520 490.658142,462.082520 
	C494.489929,481.431152 498.356873,500.957397 502.223816,520.483643 
	C502.554535,520.539124 502.885284,520.594666 503.216003,520.650146 
	C507.117462,501.144348 511.018951,481.638580 514.956848,461.950806 
	C522.215088,461.950806 529.319885,461.950806 536.867249,461.950806 
	C541.034058,481.450073 545.212769,501.005280 549.391479,520.560486 
	C549.787659,520.577515 550.183838,520.594543 550.580017,520.611572 
	C552.150208,511.953033 553.720398,503.294464 555.385132,494.216675 
z"/>
<path fill="#060606" opacity="1.000000" stroke="none" 
	d="
M56.741150,462.192444 
	C70.398804,467.214844 77.647980,475.436737 78.948212,487.681244 
	C72.499168,487.681244 66.103546,487.760956 59.715221,487.581360 
	C58.907879,487.558685 57.969852,486.287842 57.378376,485.403931 
	C52.042839,477.430664 38.951031,474.382812 30.707394,479.252838 
	C25.468409,482.347778 24.935505,488.736267 30.230726,491.772430 
	C34.003723,493.935791 38.586121,494.747833 42.866337,495.953308 
	C51.011139,498.247253 59.522953,499.591736 67.304443,502.753052 
	C87.509659,510.961609 84.500160,533.408813 72.497528,543.506165 
	C57.688625,555.964294 29.604002,556.096313 14.747665,543.673157 
	C8.521463,538.466675 5.007514,532.035400 3.187845,522.056946 
	C9.703526,522.056946 16.117258,521.958679 22.520370,522.174927 
	C23.369844,522.203613 24.447632,523.698059 24.941982,524.740173 
	C29.724857,534.823120 46.681087,539.483948 56.032982,533.213440 
	C61.538387,529.522034 61.517368,522.474243 55.473320,519.499817 
	C50.920227,517.259155 45.761589,516.204529 40.819633,514.809204 
	C34.111626,512.915161 27.121462,511.791473 20.672024,509.265717 
	C11.593324,505.710266 5.459376,499.228638 4.855309,488.787567 
	C4.233589,478.041351 9.400990,470.648376 18.511642,465.806824 
	C30.564611,459.401642 43.287045,458.749268 56.741150,462.192444 
z"/>
<path fill="#050505" opacity="1.000000" stroke="none" 
	d="
M278.048035,551.204346 
	C260.775330,550.606445 257.308777,546.996399 257.297974,530.084717 
	C257.291534,519.955261 257.296783,509.825867 257.296783,499.424622 
	C254.138123,499.424622 251.398773,499.424622 248.304504,499.424622 
	C248.131943,500.892700 247.967178,502.294373 247.796265,503.748474 
	C247.175995,503.879944 246.710251,504.055908 246.241196,504.065216 
	C243.747086,504.114716 241.230652,503.920319 238.761581,504.182983 
	C231.752701,504.928558 228.084198,508.416473 227.796646,515.420837 
	C227.393860,525.232727 227.518478,535.066345 227.425247,544.890808 
	C227.406525,546.863892 227.422546,548.837219 227.422546,550.999939 
	C220.557190,550.999939 214.112732,550.999939 207.340729,550.999939 
	C207.340729,528.985107 207.340729,507.086761 207.340729,484.975281 
	C213.679245,484.975281 219.946991,484.975281 226.706192,484.975281 
	C226.706192,488.344971 226.706192,491.545013 226.706192,494.745087 
	C233.846756,482.324280 245.376053,484.027191 256.984558,485.028442 
	C256.984558,478.858002 256.984558,473.116760 256.984558,466.908936 
	C264.128662,466.908936 270.808228,466.908936 277.903320,466.908936 
	C277.903320,472.756622 277.903320,478.521393 277.903320,484.609924 
	C282.716949,484.609924 287.143646,484.609924 291.919434,484.609924 
	C291.919434,489.488007 291.919434,494.041534 291.919434,498.969727 
	C287.551849,498.969727 283.124481,498.969727 277.906738,498.969727 
	C277.906738,505.388336 277.905975,511.463715 277.906982,517.539124 
	C277.907593,521.203918 277.880219,524.869019 277.919861,528.533447 
	C277.988678,534.891663 279.492096,536.426758 285.889221,536.661133 
	C287.850891,536.732971 289.817383,536.672363 292.032532,536.672363 
	C292.032532,541.625671 292.032532,546.216248 292.032532,551.204163 
	C287.478668,551.204163 283.007965,551.204163 278.048035,551.204346 
z"/>
<path fill="#070707" opacity="1.000000" stroke="none" 
	d="
M1009.915894,551.198120 
	C1005.819031,551.198059 1002.194153,551.198059 998.320374,551.198059 
	C998.320374,548.567383 998.320374,546.434082 998.320374,543.620056 
	C995.876587,545.617432 994.046509,547.423096 991.932861,548.790344 
	C978.337341,557.584473 959.536682,552.190125 952.680786,537.147888 
	C946.946838,524.567078 946.822266,511.542328 952.745422,498.980255 
	C960.954895,481.569183 982.701111,477.953247 996.572754,491.364197 
	C996.871826,491.653290 997.239990,491.870880 998.246277,492.622498 
	C998.246277,487.054596 998.246277,482.150818 998.246277,477.247040 
	C998.246277,472.262177 998.246277,467.277313 998.246277,462.008728 
	C1005.085632,462.008728 1011.662231,462.008728 1018.487671,462.008728 
	C1018.487671,491.685242 1018.487671,521.220032 1018.487671,551.198120 
	C1015.649658,551.198120 1013.018738,551.198120 1009.915894,551.198120 
M990.059814,500.116302 
	C980.374573,497.595642 973.657104,501.122040 970.823853,510.634766 
	C968.966736,516.870300 969.273499,523.193787 972.192261,529.112305 
	C976.268005,537.377136 986.972717,539.387756 993.784302,533.898071 
	C1000.930054,528.139221 1001.920044,504.729004 990.059814,500.116302 
z"/>
<path fill="#060606" opacity="1.000000" stroke="none" 
	d="
M413.342102,483.410675 
	C431.947906,483.396820 443.602661,494.925964 444.440552,514.827393 
	C444.714172,521.326660 443.774048,528.267456 441.650360,534.404724 
	C434.994385,553.640076 410.781219,559.747864 395.060059,543.685547 
	C395.060059,553.497253 395.060059,562.871704 395.060059,572.583862 
	C388.068207,572.583862 381.506866,572.583862 374.618774,572.583862 
	C374.618774,543.507263 374.618774,514.415649 374.618774,485.045837 
	C381.167542,485.045837 387.778534,485.045837 394.713654,485.045837 
	C394.826141,487.318146 394.938751,489.593201 395.091064,492.669525 
	C400.192413,487.278198 405.880554,483.946960 413.342102,483.410675 
M398.478973,532.995667 
	C406.570007,539.301880 415.670197,538.345093 420.276306,530.167175 
	C424.739227,522.243530 424.676361,513.838257 420.259766,505.850464 
	C417.537292,500.926666 412.893494,498.752106 407.240814,499.224609 
	C401.568909,499.698730 397.469604,502.566101 395.663971,508.032562 
	C392.882996,516.451904 392.867584,524.703064 398.478973,532.995667 
z"/>
<path fill="#070707" opacity="1.000000" stroke="none" 
	d="
M221.980164,403.000336 
	C221.980164,409.791138 221.980164,416.082275 221.980164,422.650665 
	C214.995941,422.650665 208.431366,422.650665 201.615845,422.650665 
	C201.615845,392.912231 201.615845,363.333557 201.615845,333.432373 
	C208.301758,333.432373 214.852432,333.432373 221.932846,333.432373 
	C221.932846,343.378784 221.932846,353.250244 221.932846,364.233643 
	C228.630630,357.227966 235.932007,354.517059 244.486862,354.948700 
	C255.593353,355.509094 262.265778,361.025665 263.892609,371.970459 
	C264.719940,377.536621 264.826721,383.237610 264.899261,388.882263 
	C265.038391,399.708771 264.922913,410.538605 264.899109,421.367004 
	C264.898407,421.676819 264.740112,421.986298 264.568146,422.614075 
	C258.237640,422.614075 251.816833,422.614075 244.564026,422.614075 
	C244.564026,420.827362 244.581451,418.923950 244.561172,417.020905 
	C244.433380,405.032837 244.487930,393.038544 244.090561,381.059296 
	C243.861115,374.142914 241.077927,371.253784 235.541153,370.862122 
	C228.730331,370.380371 223.967300,373.191895 223.122238,379.610992 
	C222.128418,387.160156 222.308914,394.863922 221.980164,403.000336 
z"/>
<path fill="#050505" opacity="1.000000" stroke="none" 
	d="
M787.968811,528.940125 
	C792.565063,536.283264 796.985413,543.309326 801.951782,551.203308 
	C793.924133,551.203308 786.678589,551.346802 779.450256,551.058960 
	C778.275879,551.012207 776.884094,549.235657 776.092529,547.950806 
	C771.560608,540.594238 767.179688,533.144592 762.819641,525.847351 
	C751.741821,531.235596 753.464050,541.407593 753.686951,550.975586 
	C746.518982,550.975586 739.928650,550.975586 733.181824,550.975586 
	C733.181824,521.290222 733.181824,491.850616 733.181824,462.086243 
	C739.801392,462.086243 746.362915,462.086243 753.512573,462.086243 
	C753.512573,477.537109 753.512573,493.043488 753.512573,510.029022 
	C759.620544,503.143524 765.125793,497.662354 769.740173,491.512756 
	C773.629822,486.328979 778.003662,484.064941 784.468079,484.796936 
	C789.162537,485.328461 793.965637,484.900757 799.924683,484.900757 
	C793.034302,492.247559 787.101746,498.890778 780.802673,505.165985 
	C777.232910,508.722198 776.082642,511.661713 779.696899,516.038147 
	C782.850830,519.857117 785.128174,524.400024 787.968811,528.940125 
z"/>
<path fill="#E7B746" opacity="1.000000" stroke="none" 
	d="
M177.238892,616.236328 
	C179.697540,616.240173 181.703903,616.367004 183.689606,616.218262 
	C187.436447,615.937561 190.741928,616.241516 191.306976,621.436401 
	C197.923141,615.965698 205.068802,613.614380 212.975006,614.509949 
	C224.270432,615.789551 231.966888,622.062927 235.865570,632.665100 
	C240.650665,645.677795 240.250397,658.429199 232.958771,670.571533 
	C225.849823,682.409607 208.522797,686.256653 197.027863,678.588257 
	C195.675140,677.685913 194.270416,676.861511 191.619720,675.209229 
	C191.619720,680.702698 191.680588,685.205444 191.601822,689.705750 
	C191.529495,693.838135 192.789551,699.193909 190.697403,701.724487 
	C188.911789,703.884216 183.204056,702.893066 179.221298,703.123657 
	C172.850449,703.492493 172.903656,703.432373 172.910187,697.279602 
	C172.936890,672.151062 172.914673,647.022583 172.945190,621.894043 
	C172.948441,619.220276 172.015869,615.755737 177.238892,616.236328 
M218.958466,638.963135 
	C216.757309,633.672852 213.863708,629.318542 207.370560,628.713013 
	C201.262573,628.143250 196.117859,630.037292 193.498001,635.446594 
	C189.997620,642.673889 189.561325,650.559753 192.213409,658.248657 
	C194.982452,666.276611 199.540649,668.913208 208.319366,668.264648 
	C213.527634,667.879883 219.000412,662.687195 219.695602,656.069824 
	C220.259171,650.705322 219.420258,645.193420 218.958466,638.963135 
z"/>
<path fill="#070707" opacity="1.000000" stroke="none" 
	d="
M51.001343,388.100525 
	C52.447979,366.807404 68.890190,352.560059 89.348877,354.413239 
	C109.872925,356.272278 122.770584,372.662964 120.569687,394.601440 
	C104.545952,394.601440 88.464882,394.601440 72.064362,394.601440 
	C71.606812,400.060394 74.110359,403.497650 77.952461,406.085510 
	C84.116905,410.237640 94.257896,409.196259 99.924431,404.379150 
	C101.476013,403.060120 103.817436,402.185089 105.865150,402.033203 
	C110.490837,401.690125 115.159409,401.925415 119.865753,401.925415 
	C116.911446,415.562683 100.291946,426.116882 82.938232,424.334961 
	C62.951050,422.282684 51.402885,409.681183 51.001343,388.100525 
M74.817230,382.387939 
	C83.235909,382.387939 91.654579,382.387939 100.089249,382.387939 
	C99.714203,374.786896 95.673836,370.742401 88.403107,370.093445 
	C80.592491,369.396301 73.622513,373.512878 72.381897,379.759888 
	C72.233917,380.505005 73.365623,381.504272 74.817230,382.387939 
z"/>
<path fill="#050505" opacity="1.000000" stroke="none" 
	d="
M859.499573,491.495300 
	C868.438110,500.355499 870.826721,511.030396 870.212769,523.184814 
	C853.842712,523.184814 837.760315,523.184814 821.684937,523.184814 
	C821.684448,532.622925 829.061707,538.141968 839.708984,536.826904 
	C842.133423,536.527466 845.250671,536.159790 846.696289,534.583191 
	C853.415771,527.254517 861.833069,531.460754 869.615723,530.079773 
	C865.844360,543.631836 852.500488,552.809937 837.012146,552.922974 
	C819.686035,553.049438 806.341980,544.053040 802.077087,529.370178 
	C797.456665,513.463196 803.065247,496.525452 815.553467,488.671692 
	C829.449585,479.932526 847.523254,480.998230 859.499573,491.495300 
M848.753967,505.044769 
	C844.737976,499.232239 838.632996,497.093689 831.369507,498.954987 
	C825.499878,500.459106 822.313538,504.342621 821.854004,510.507568 
	C831.156738,510.507568 840.457336,510.507568 850.173096,510.507568 
	C849.722229,508.610870 849.385010,507.192078 848.753967,505.044769 
z"/>
<path fill="#060606" opacity="1.000000" stroke="none" 
	d="
M176.259521,507.067749 
	C175.589630,499.792419 173.728775,497.594482 167.933441,496.770660 
	C160.268890,495.681152 155.994217,498.286316 152.816727,506.352112 
	C149.898056,506.352112 146.774323,506.352081 143.650574,506.352081 
	C140.670563,506.352081 137.690536,506.352112 134.289261,506.352112 
	C135.353790,496.946503 140.364288,490.789825 148.222305,486.877350 
	C158.728867,481.646210 169.815033,481.480072 180.840515,484.664673 
	C190.848755,487.555542 195.742462,495.129883 196.197708,505.154663 
	C196.771286,517.785034 196.587891,530.449036 196.798248,543.097351 
	C196.839615,545.584351 197.186508,548.066345 197.420898,550.893433 
	C190.982300,550.893433 184.596298,550.893433 177.976852,550.893433 
	C177.771835,548.966675 177.566467,547.036560 177.262054,544.175537 
	C170.545990,551.019958 162.705978,553.303650 154.000259,552.901917 
	C147.477829,552.601013 141.445694,550.776184 136.927673,545.829468 
	C128.172852,536.243958 131.284805,521.500183 143.937515,516.749146 
	C153.001419,513.345703 162.924652,512.253357 172.423782,509.961182 
	C173.813339,509.625885 174.976517,508.352295 176.259521,507.067749 
M159.437851,524.683472 
	C155.714859,526.219482 152.470367,528.186340 153.269302,532.993408 
	C153.887238,536.711304 157.843460,539.110107 162.932617,539.077759 
	C172.686218,539.015747 177.823883,532.526978 176.147186,521.540527 
	C170.819672,522.494690 165.494659,523.448364 159.437851,524.683472 
z"/>
<path fill="#050505" opacity="1.000000" stroke="none" 
	d="
M602.359131,530.244019 
	C609.383423,538.518005 620.960449,539.286865 628.779480,532.550964 
	C630.232849,531.298950 632.460083,530.467407 634.389465,530.340271 
	C639.132751,530.027466 643.910583,530.237854 648.791565,530.237854 
	C643.586487,547.309814 624.137878,556.740356 605.231079,551.717712 
	C586.192322,546.659912 576.252136,529.707153 580.535767,509.600342 
	C584.466003,491.152466 601.907043,480.119965 621.949951,483.403412 
	C639.855530,486.336670 651.572266,503.131653 649.170471,522.952881 
	C633.172974,522.952881 617.108887,522.952881 600.143250,522.952881 
	C600.928345,525.695923 601.532166,527.805481 602.359131,530.244019 
M600.866638,508.976929 
	C601.534241,509.620697 602.193726,510.814819 602.870605,510.824738 
	C611.495911,510.951416 620.123657,510.908234 628.751831,510.908234 
	C628.666687,503.894714 625.214600,499.894348 618.518921,498.694611 
	C610.146240,497.194305 604.158630,500.432892 600.866638,508.976929 
z"/>
<path fill="#060606" opacity="1.000000" stroke="none" 
	d="
M688.154419,482.938080 
	C712.523682,481.625122 726.265320,500.112915 724.588257,523.157043 
	C716.580627,523.157043 708.497437,523.157043 700.414246,523.157043 
	C692.297729,523.157043 684.181152,523.157043 676.063049,523.157043 
	C676.228516,533.577576 686.168762,539.579773 697.157654,536.295166 
	C698.266418,535.963684 699.631714,535.732361 700.347473,534.961792 
	C707.058899,527.736084 715.722168,530.961975 723.721375,530.179016 
	C721.929077,541.963135 706.505615,554.412537 687.619263,552.847351 
	C667.968384,551.218872 655.233948,538.088867 654.972717,518.692871 
	C654.704102,498.750519 667.367554,484.916168 688.154419,482.938080 
M678.906921,510.911591 
	C687.294678,510.911591 695.682434,510.911591 704.089905,510.911591 
	C703.673645,503.236328 699.794434,499.289215 692.498169,498.503479 
	C684.774414,497.671692 677.763550,501.688080 676.388306,507.971344 
	C676.209045,508.790344 677.433594,509.916565 678.906921,510.911591 
z"/>
<path fill="#060606" opacity="1.000000" stroke="none" 
	d="
M422.842804,422.931000 
	C415.737244,424.958466 408.994171,425.228271 402.326935,422.914001 
	C394.797668,420.300446 389.886353,415.251862 388.987122,407.106232 
	C388.083588,398.921234 391.401306,392.196930 398.895721,389.281982 
	C407.313812,386.007843 416.350098,384.294800 425.162079,382.080292 
	C427.537994,381.483215 430.075928,381.530823 432.475372,381.288940 
	C433.536957,373.897919 431.744934,370.188538 426.559631,368.708649 
	C418.552185,366.423340 413.199097,369.223541 409.540405,377.970154 
	C406.624512,377.970154 403.509552,377.970123 400.394592,377.970123 
	C397.417236,377.970123 394.439850,377.970154 391.467773,377.970154 
	C391.412720,368.125854 399.274628,359.381805 410.889557,356.021423 
	C418.905884,353.702179 427.001831,353.635529 435.079346,355.480743 
	C445.524445,357.866760 451.791992,364.892944 452.870575,375.628174 
	C453.317719,380.078552 453.086914,384.600891 453.096375,389.090668 
	C453.119843,400.194519 453.104095,411.298462 453.104095,422.667664 
	C447.647705,422.667664 441.390320,422.667664 434.728760,422.667664 
	C434.493256,420.598053 434.255035,418.504883 434.033722,416.560028 
	C430.462524,418.629059 426.843445,420.725861 422.842804,422.931000 
M424.264679,409.996979 
	C431.758331,407.238495 434.717682,401.605743 432.678650,392.819794 
	C426.601898,394.226471 420.346283,395.164215 414.526459,397.293243 
	C412.436157,398.057953 410.040039,401.827179 410.253510,403.980225 
	C410.471527,406.179321 413.386688,408.792816 415.743225,409.896729 
	C417.888031,410.901459 420.867828,410.123779 424.264679,409.996979 
z"/>
<path fill="#050505" opacity="1.000000" stroke="none" 
	d="
M319.726868,489.359314 
	C319.772003,501.640472 319.668579,513.466553 319.906189,525.285706 
	C320.065125,533.191589 322.831390,536.612000 328.594666,537.026733 
	C336.185791,537.572876 340.552765,534.481323 341.214661,526.270020 
	C342.041809,516.009155 341.714722,505.654541 341.858887,495.340027 
	C341.905334,492.017303 341.866211,488.693420 341.866211,485.073700 
	C348.633362,485.073700 355.215088,485.073700 362.035095,485.073700 
	C362.035095,507.030914 362.035095,528.929138 362.035095,551.016479 
	C355.349213,551.016479 348.901581,551.016479 342.042664,551.016479 
	C341.933105,548.598022 341.826813,546.251526 341.646515,542.270935 
	C336.115479,550.609985 329.192108,553.202942 320.879395,552.923096 
	C308.468536,552.505310 300.937500,546.422974 300.041412,533.965698 
	C299.075928,520.542603 299.444946,507.023102 299.248779,493.545441 
	C299.208282,490.761749 299.242920,487.976898 299.242920,484.983032 
	C306.241791,484.983032 312.679657,484.983032 319.511993,484.983032 
	C319.586975,486.372955 319.655182,487.637146 319.726868,489.359314 
z"/>
<path fill="#030303" opacity="1.000000" stroke="none" 
	d="
M882.237305,484.781799 
	C888.005615,484.781128 893.299927,484.781128 899.050171,484.781128 
	C899.050171,487.423645 899.050171,489.627991 899.050171,492.930115 
	C905.796753,485.269653 913.562317,482.720215 922.448120,483.448975 
	C933.322021,484.340668 939.399963,489.456207 940.988159,500.229492 
	C942.025146,507.263885 941.868713,514.493896 941.978149,521.640442 
	C942.125732,531.272949 942.014832,540.909363 942.014832,550.878418 
	C935.134155,550.878418 928.577576,550.878418 921.689880,550.878418 
	C921.689880,539.974609 921.735413,529.167297 921.663635,518.360718 
	C921.640503,514.870728 921.364624,511.378571 921.105347,507.894806 
	C920.735046,502.919342 918.100220,499.908691 913.103577,499.201416 
	C907.474548,498.404572 902.429749,500.803192 900.956299,505.687134 
	C899.774353,509.604584 899.174683,513.819641 899.081543,517.919983 
	C898.833191,528.860596 898.997070,539.810608 898.997070,550.977173 
	C892.093201,550.977173 885.658630,550.977173 878.945984,550.977173 
	C878.803345,550.035461 878.539734,549.102356 878.538757,548.169006 
	C878.518005,528.344910 878.548889,508.520721 878.501038,488.696747 
	C878.495300,486.320862 878.448669,484.239410 882.237305,484.781799 
z"/>
<path fill="#070707" opacity="1.000000" stroke="none" 
	d="
M329.308777,387.648315 
	C339.427155,392.338074 340.053986,409.963074 329.766907,417.677277 
	C318.200592,426.350769 294.743530,426.896942 282.876221,418.572906 
	C277.020172,414.465271 273.621643,408.882538 272.651337,401.244019 
	C278.414154,401.244019 283.715912,401.113647 289.001465,401.348419 
	C290.127533,401.398407 291.513092,402.552368 292.236694,403.579742 
	C296.627167,409.813202 309.726532,411.894318 315.657410,407.175079 
	C318.524536,404.893677 318.462341,401.499878 315.021698,400.014984 
	C311.566681,398.523834 307.713684,397.944641 304.024017,397.009552 
	C297.604523,395.382629 290.952301,394.375366 284.811768,392.025848 
	C277.930817,389.393005 274.256683,383.718750 273.887115,376.148163 
	C273.521942,368.666168 276.923340,363.066772 283.288269,359.809814 
	C297.594147,352.489441 312.086975,352.360931 326.133545,360.608704 
	C331.546509,363.787018 334.520996,368.934540 335.574554,375.888123 
	C329.650116,375.888123 324.054749,375.926697 318.461334,375.839539 
	C317.758636,375.828583 316.823547,375.332672 316.406097,374.761688 
	C311.303894,367.782928 304.132019,369.277679 297.277985,370.319824 
	C295.781433,370.547363 293.493988,372.846985 293.538086,374.124359 
	C293.595459,375.785278 295.330780,378.392731 296.846375,378.823059 
	C303.066040,380.589050 309.524384,381.494598 315.800537,383.088318 
	C320.283691,384.226715 324.616516,385.957031 329.308777,387.648315 
z"/>
<path fill="#070707" opacity="1.000000" stroke="none" 
	d="
M538.441101,380.898621 
	C545.805176,382.576508 552.860657,383.834045 559.668152,385.906494 
	C575.678955,390.780701 573.394043,409.923767 564.987183,416.964050 
	C553.315491,426.738464 527.502686,427.132416 515.704834,417.468018 
	C510.536804,413.234589 507.856140,408.259094 507.239197,401.523926 
	C513.341980,401.523926 519.426392,401.523926 525.524475,401.523926 
	C529.833618,409.129578 540.399475,412.278656 548.304504,408.034210 
	C549.832214,407.213959 551.835693,405.080597 551.659851,403.828033 
	C551.424988,402.154602 549.535095,399.876648 547.901062,399.392059 
	C542.828735,397.887787 537.510315,397.238647 532.346985,396.007812 
	C528.000732,394.971710 523.580627,393.967041 519.471924,392.272614 
	C511.932770,389.163513 508.216980,383.112274 508.205841,375.015350 
	C508.195282,367.356506 512.365356,362.000763 518.976440,358.944916 
	C531.730652,353.049530 544.805359,352.876648 557.602783,358.808929 
	C564.474304,361.994293 568.429626,367.801941 570.020142,375.904053 
	C564.074341,375.904053 558.476807,375.935913 552.880676,375.864777 
	C552.160339,375.855621 551.133362,375.520660 550.777649,374.985107 
	C546.041504,367.854523 538.965942,369.276855 532.294800,370.216309 
	C530.519653,370.466248 527.839233,372.859802 527.779297,374.357422 
	C527.716797,375.918060 530.062134,378.001709 531.827576,379.088715 
	C533.586182,380.171509 535.931641,380.301086 538.441101,380.898621 
z"/>
<path fill="#E7B747" opacity="1.000000" stroke="none" 
	d="
M72.014954,658.249268 
	C74.202065,649.454712 80.446571,645.803528 88.229622,644.240112 
	C94.581833,642.963989 101.037781,642.211487 107.408585,641.017822 
	C110.827019,640.377258 113.907448,639.012207 113.739136,634.664551 
	C113.570335,630.304688 110.912033,628.197083 106.943626,627.304138 
	C100.347786,625.820190 95.507874,628.379028 92.244392,634.627441 
	C91.673599,635.720276 89.662827,636.669312 88.333664,636.648132 
	C83.634460,636.573059 78.942444,636.047913 74.247696,635.693420 
	C74.451859,633.419495 74.182999,630.971985 74.942833,628.902039 
	C78.069870,620.383301 85.470894,617.066833 93.459488,615.445251 
	C102.491165,613.611938 111.661201,613.736084 120.555176,616.853516 
	C128.563004,619.660400 132.543655,626.019287 132.613861,634.393372 
	C132.736374,649.009033 133.359253,663.620300 133.755585,678.233948 
	C133.773056,678.877625 133.623611,679.525879 133.467499,680.932556 
	C126.956924,679.228149 119.489807,684.529480 113.803078,676.914124 
	C106.568726,680.939758 98.811485,683.226685 90.149307,682.129028 
	C75.792732,680.309875 69.978180,673.004456 72.014954,658.249268 
M93.209488,668.643982 
	C99.319328,671.045288 105.419159,671.287231 110.392578,666.560059 
	C114.877403,662.297241 114.206635,656.494873 113.871887,650.610962 
	C107.640312,651.852539 101.852661,652.580933 96.330322,654.209167 
	C88.750587,656.443909 87.387611,662.210022 93.209488,668.643982 
z"/>
<path fill="#070707" opacity="1.000000" stroke="none" 
	d="
M183.027344,361.960114 
	C188.596207,367.094116 191.940536,373.021484 193.041138,380.552002 
	C186.715134,380.552002 180.634521,380.552002 174.581024,380.552002 
	C170.425781,371.528198 165.323166,368.621704 157.535233,370.794373 
	C148.795197,373.232605 144.620682,385.629578 148.291580,398.244965 
	C150.682755,406.462463 158.171097,410.784637 166.158798,407.795685 
	C169.140259,406.679993 172.070053,404.052948 173.782684,401.333618 
	C175.280945,398.954681 176.569946,398.137268 179.149429,398.212433 
	C183.956512,398.352356 188.770554,398.252563 193.614655,398.252563 
	C192.371674,410.897919 181.205261,421.631348 167.207458,423.978058 
	C149.756134,426.903717 135.426086,419.885193 129.144867,405.335876 
	C122.635384,390.257874 127.014236,370.388336 138.904572,361.050293 
	C150.671051,351.809509 170.115875,352.109406 183.027344,361.960114 
z"/>
<path fill="#E7B745" opacity="1.000000" stroke="none" 
	d="
M288.993866,628.020386 
	C288.994019,624.045044 288.994019,620.565186 288.994019,616.288696 
	C294.466522,616.288696 299.574005,616.118347 304.649078,616.447876 
	C305.548767,616.506226 307.025360,618.640503 307.034027,619.825073 
	C307.174438,638.976990 307.084076,658.130432 307.148987,677.283203 
	C307.158844,680.195068 305.921448,681.061218 303.221283,680.904602 
	C300.565887,680.750549 297.880615,680.722107 295.231934,680.933289 
	C291.314117,681.245605 288.552338,680.434814 289.370087,674.747986 
	C287.208984,676.229675 285.759979,677.142517 284.397675,678.170227 
	C275.579041,684.823303 254.448624,684.175476 249.863632,672.789673 
	C247.573532,667.102783 246.804352,660.570862 246.505829,654.365417 
	C245.970169,643.230896 246.366394,632.053711 246.247040,620.895691 
	C246.211990,617.619019 247.154892,616.147766 250.805878,616.135132 
	C264.911133,616.086365 264.909576,615.970886 264.912048,630.040100 
	C264.913483,638.201294 264.857208,646.363037 264.940613,654.523438 
	C265.025299,662.808350 268.348358,667.306030 274.649231,667.936401 
	C281.636475,668.635376 287.577606,664.330261 288.343262,656.442139 
	C289.240356,647.199402 288.834442,637.830200 288.993866,628.020386 
z"/>
<path fill="#E7B744" opacity="1.000000" stroke="none" 
	d="
M61.716156,618.000000 
	C61.559475,632.137024 62.176399,645.839233 61.034557,659.393250 
	C59.832783,673.658691 51.257732,681.189026 36.941517,682.734680 
	C29.677172,683.519043 22.566864,682.521362 16.077164,679.143860 
	C5.974879,673.886414 0.164685,661.299011 2.395055,649.898193 
	C2.600474,648.848145 4.104182,647.619202 5.241269,647.290405 
	C6.774882,646.846985 8.538693,647.164001 10.202025,647.212708 
	C13.341187,647.304626 17.200338,646.390503 19.383640,647.893738 
	C21.054283,649.044006 20.586460,653.275330 21.104084,656.130005 
	C22.249962,662.449585 26.561682,666.155273 32.421341,665.884705 
	C38.084919,665.623291 41.222652,661.921082 41.314373,654.852478 
	C41.564831,635.550171 41.788567,616.246033 41.766949,596.942932 
	C41.762531,592.998352 42.910347,591.498962 46.872566,591.830444 
	C50.179657,592.107117 53.550617,592.148926 56.851143,591.841797 
	C60.972912,591.458313 61.942848,593.219238 61.792130,597.024841 
	C61.522213,603.840210 61.716286,610.673950 61.716156,618.000000 
z"/>
<path fill="#060606" opacity="1.000000" stroke="none" 
	d="
M120.959938,536.661011 
	C123.202362,536.661743 125.002449,536.661743 127.087662,536.661743 
	C127.087662,541.592285 127.087662,546.164795 127.087662,550.704041 
	C119.528481,550.704041 112.039322,551.229431 104.658958,550.558411 
	C97.063675,549.867737 93.378181,545.925110 92.863564,538.103699 
	C92.231346,528.494812 92.454521,518.828979 92.331558,509.187500 
	C92.291428,506.041412 92.325249,502.894379 92.325249,499.202332 
	C88.783936,499.202332 85.559990,499.202332 82.127205,499.202332 
	C82.127205,494.224976 82.127205,489.791077 82.127205,484.843018 
	C85.407707,484.843018 88.634125,484.843018 92.291702,484.843018 
	C92.291702,478.584229 92.291702,472.825867 92.291702,466.763916 
	C99.288467,466.763916 105.849083,466.763916 112.807510,466.763916 
	C112.807510,472.745575 112.807510,478.509155 112.807510,484.702728 
	C117.755112,484.702728 122.329346,484.702728 127.103241,484.702728 
	C127.103241,489.701447 127.103241,494.260071 127.103241,499.137939 
	C122.406281,499.137939 117.958794,499.137939 113.038834,499.137939 
	C113.038834,510.189575 112.851616,520.933838 113.129005,531.666199 
	C113.243408,536.092468 117.149788,536.307129 120.959938,536.661011 
z"/>
<path fill="#070707" opacity="1.000000" stroke="none" 
	d="
M369.639008,374.024597 
	C369.629517,382.682495 369.619720,390.840149 369.648804,398.997620 
	C369.676758,406.843842 370.719849,407.905853 378.526703,408.119720 
	C380.164825,408.164612 381.805206,408.126251 383.777527,408.126251 
	C383.777527,413.028046 383.777527,417.610504 383.777527,423.403717 
	C375.337616,422.793945 366.714752,422.768433 358.321564,421.367157 
	C352.096924,420.327942 349.372955,415.305115 349.189087,407.096466 
	C348.961731,396.945801 349.073456,386.787537 349.040833,376.632538 
	C349.035126,374.852386 349.040009,373.072174 349.040009,370.961792 
	C345.388153,370.961792 342.272003,370.961792 338.838196,370.961792 
	C338.838196,366.054901 338.838196,361.478882 338.838196,356.366455 
	C342.108704,356.366455 345.336029,356.366455 349.023376,356.366455 
	C349.023376,350.113068 349.023376,344.369232 349.023376,338.377960 
	C355.926941,338.377960 362.359650,338.377960 369.260651,338.377960 
	C369.260651,344.060577 369.260651,349.799438 369.260651,356.043884 
	C374.279388,356.043884 378.855591,356.043884 383.761902,356.043884 
	C383.761902,361.100800 383.761902,365.663788 383.761902,370.904114 
	C380.067017,370.904114 376.287811,370.720459 372.548187,371.024170 
	C371.523102,371.107422 370.616608,372.650879 369.639008,374.024597 
z"/>
<path fill="#050505" opacity="1.000000" stroke="none" 
	d="
M500.802673,375.663025 
	C487.534119,375.686066 484.161560,379.073944 484.138214,392.004578 
	C484.119965,402.124207 484.134552,412.243896 484.134552,422.639221 
	C477.251129,422.639221 470.688660,422.639221 463.923584,422.639221 
	C463.923584,400.626343 463.923584,378.719757 463.923584,356.527100 
	C470.339447,356.527100 476.575928,356.527100 483.194031,356.527100 
	C483.377380,359.657166 483.563171,362.828735 483.773315,366.416199 
	C491.895813,357.103973 495.692596,355.270905 504.715851,356.346069 
	C504.715851,362.048523 504.839935,367.831329 504.562714,373.594818 
	C504.527100,374.336304 502.409180,374.977692 500.802673,375.663025 
z"/>
<path fill="#E7B746" opacity="1.000000" stroke="none" 
	d="
M317.410583,632.117310 
	C317.568359,627.814575 317.837189,623.995361 317.845215,620.175598 
	C317.850861,617.475464 318.849518,616.078674 321.657288,616.246155 
	C322.321014,616.285767 322.989563,616.236755 323.655579,616.247559 
	C326.813599,616.298828 330.561432,615.344849 332.942627,616.732971 
	C334.842438,617.840393 335.076660,621.805054 336.176941,624.852295 
	C340.404907,619.252014 345.914093,615.599854 352.943298,614.471252 
	C358.344330,613.604004 359.798492,614.776978 359.800293,620.343384 
	C359.801453,623.829285 360.820129,628.097107 359.181793,630.535706 
	C358.022797,632.260681 353.171753,631.458984 349.980347,631.873718 
	C341.304413,633.001221 336.328033,639.433105 336.120514,650.284485 
	C335.930176,660.235779 336.080078,670.193604 336.080078,680.881714 
	C330.740082,680.881714 325.618073,681.110107 320.550903,680.685181 
	C319.561462,680.602295 318.057526,678.001404 318.022217,676.532410 
	C317.670227,661.892029 317.576691,647.245483 317.410583,632.117310 
z"/>
<path fill="#E7B745" opacity="1.000000" stroke="none" 
	d="
M161.945435,637.000366 
	C161.945389,651.647705 161.945389,665.795105 161.945389,680.409790 
	C155.962204,680.409790 150.416443,680.409790 144.157059,680.409790 
	C143.897461,677.677185 143.399689,674.771790 143.381897,671.863403 
	C143.282104,655.534790 143.288834,639.205505 143.278900,622.876404 
	C143.274948,616.369019 143.400375,616.267944 149.979691,616.260193 
	C161.940460,616.246033 161.940689,616.245972 161.945312,628.002563 
	C161.946426,630.835205 161.945480,633.667908 161.945435,637.000366 
z"/>
<path fill="#030303" opacity="1.000000" stroke="none" 
	d="
M573.802246,431.000305 
	C573.802124,428.191956 573.802124,425.875916 573.802124,423.213806 
	C592.132141,423.213806 610.286072,423.213806 628.676758,423.213806 
	C628.676758,428.681396 628.676758,434.076782 628.676758,439.764435 
	C610.494690,439.764435 592.478027,439.764435 573.802368,439.764435 
	C573.802368,437.010742 573.802368,434.251709 573.802246,431.000305 
z"/>
<path fill="#E7B747" opacity="1.000000" stroke="none" 
	d="
M152.058105,606.925842 
	C150.091156,606.925537 148.590576,606.817200 147.111176,606.948120 
	C144.229340,607.202942 143.210114,605.766235 143.346344,603.119019 
	C143.363312,602.789001 143.289459,602.449951 143.336182,602.126465 
	C143.815170,598.809998 143.645386,592.966492 144.919479,592.631531 
	C149.705887,591.373108 154.966171,591.819092 160.044785,591.896484 
	C160.667435,591.905945 161.745895,593.522522 161.791275,594.435242 
	C161.986374,598.359253 161.874573,602.298462 161.874573,606.925903 
	C158.381348,606.925903 155.457687,606.925903 152.058105,606.925842 
z"/>
<path fill="#FAFAFA" opacity="1.000000" stroke="none" 
	d="
M990.421082,500.258057 
	C1001.920044,504.729004 1000.930054,528.139221 993.784302,533.898071 
	C986.972717,539.387756 976.268005,537.377136 972.192261,529.112305 
	C969.273499,523.193787 968.966736,516.870300 970.823853,510.634766 
	C973.657104,501.122040 980.374573,497.595642 990.421082,500.258057 
z"/>
<path fill="#F9F9F9" opacity="1.000000" stroke="none" 
	d="
M398.251160,532.698853 
	C392.867584,524.703064 392.882996,516.451904 395.663971,508.032562 
	C397.469604,502.566101 401.568909,499.698730 407.240814,499.224609 
	C412.893494,498.752106 417.537292,500.926666 420.259766,505.850464 
	C424.676361,513.838257 424.739227,522.243530 420.276306,530.167175 
	C415.670197,538.345093 406.570007,539.301880 398.251160,532.698853 
z"/>
<path fill="#FDFDF5" opacity="1.000000" stroke="none" 
	d="
M219.080933,639.354980 
	C219.420258,645.193420 220.259171,650.705322 219.695602,656.069824 
	C219.000412,662.687195 213.527634,667.879883 208.319366,668.264648 
	C199.540649,668.913208 194.982452,666.276611 192.213409,658.248657 
	C189.561325,650.559753 189.997620,642.673889 193.498001,635.446594 
	C196.117859,630.037292 201.262573,628.143250 207.370560,628.713013 
	C213.863708,629.318542 216.757309,633.672852 219.080933,639.354980 
z"/>
<path fill="#F9F9F9" opacity="1.000000" stroke="none" 
	d="
M74.360703,382.386841 
	C73.365623,381.504272 72.233917,380.505005 72.381897,379.759888 
	C73.622513,373.512878 80.592491,369.396301 88.403107,370.093445 
	C95.673836,370.742401 99.714203,374.786896 100.089249,382.387939 
	C91.654579,382.387939 83.235909,382.387939 74.360703,382.386841 
z"/>
<path fill="#F3F3F3" opacity="1.000000" stroke="none" 
	d="
M848.900879,505.409027 
	C849.385010,507.192078 849.722229,508.610870 850.173096,510.507568 
	C840.457336,510.507568 831.156738,510.507568 821.854004,510.507568 
	C822.313538,504.342621 825.499878,500.459106 831.369507,498.954987 
	C838.632996,497.093689 844.737976,499.232239 848.900879,505.409027 
z"/>
<path fill="#F3F3F3" opacity="1.000000" stroke="none" 
	d="
M159.803741,524.542786 
	C165.494659,523.448364 170.819672,522.494690 176.147186,521.540527 
	C177.823883,532.526978 172.686218,539.015747 162.932617,539.077759 
	C157.843460,539.110107 153.887238,536.711304 153.269302,532.993408 
	C152.470367,528.186340 155.714859,526.219482 159.803741,524.542786 
z"/>
<path fill="#F3F3F3" opacity="1.000000" stroke="none" 
	d="
M600.954224,508.562286 
	C604.158630,500.432892 610.146240,497.194305 618.518921,498.694611 
	C625.214600,499.894348 628.666687,503.894714 628.751831,510.908234 
	C620.123657,510.908234 611.495911,510.951416 602.870605,510.824738 
	C602.193726,510.814819 601.534241,509.620697 600.954224,508.562286 
z"/>
<path fill="#F3F3F3" opacity="1.000000" stroke="none" 
	d="
M678.457397,510.906067 
	C677.433594,509.916565 676.209045,508.790344 676.388306,507.971344 
	C677.763550,501.688080 684.774414,497.671692 692.498169,498.503479 
	C699.794434,499.289215 703.673645,503.236328 704.089905,510.911591 
	C695.682434,510.911591 687.294678,510.911591 678.457397,510.906067 
z"/>
<path fill="#F3F3F3" opacity="1.000000" stroke="none" 
	d="
M423.872131,410.064392 
	C420.867828,410.123779 417.888031,410.901459 415.743225,409.896729 
	C413.386688,408.792816 410.471527,406.179321 410.253510,403.980225 
	C410.040039,401.827179 412.436157,398.057953 414.526459,397.293243 
	C420.346283,395.164215 426.601898,394.226471 432.678650,392.819794 
	C434.717682,401.605743 431.758331,407.238495 423.872131,410.064392 
z"/>
<path fill="#FDFAED" opacity="1.000000" stroke="none" 
	d="
M92.894989,668.405518 
	C87.387611,662.210022 88.750587,656.443909 96.330322,654.209167 
	C101.852661,652.580933 107.640312,651.852539 113.871887,650.610962 
	C114.206635,656.494873 114.877403,662.297241 110.392578,666.560059 
	C105.419159,671.287231 99.319328,671.045288 92.894989,668.405518 
z"/>
</svg>